<svg xmlns="http://www.w3.org/2000/svg" width="38.158" height="25" viewBox="0 0 38.158 25"><g transform="translate(0 -88.275)"><path d="M35.3,88.276H2.858A2.858,2.858,0,0,0,0,91.134v19.284a2.858,2.858,0,0,0,2.858,2.858H35.3a2.858,2.858,0,0,0,2.858-2.858V91.134A2.858,2.858,0,0,0,35.3,88.276Z" transform="translate(0 -0.001)" fill="#f5f5f5"/><g transform="translate(0 88.275)"><path d="M2.109,90.2H39.952a2.858,2.858,0,0,0-2.7-1.923H4.81A2.858,2.858,0,0,0,2.109,90.2Z" transform="translate(-1.952 -88.276)" fill="#ff4b55"/><rect width="38.158" height="1.923" transform="translate(0 7.692)" fill="#ff4b55"/><rect width="38.158" height="1.923" transform="translate(0 3.846)" fill="#ff4b55"/><path d="M0,244.363a.658.658,0,0,0,.658.658h37.5V243.1H0Z" transform="translate(0 -231.56)" fill="#ff4b55"/><rect width="38.158" height="1.923" transform="translate(0 19.231)" fill="#ff4b55"/><path d="M39.952,397.92H2.109a2.858,2.858,0,0,0,2.7,1.923H37.252A2.858,2.858,0,0,0,39.952,397.92Z" transform="translate(-1.952 -374.843)" fill="#ff4b55"/><rect width="38.158" height="1.923" transform="translate(0 15.385)" fill="#ff4b55"/></g><path d="M.658,101.737H17.105a.658.658,0,0,0,.658-.658V88.933a.658.658,0,0,0-.658-.658H2.858A2.858,2.858,0,0,0,0,91.133v9.946A.658.658,0,0,0,.658,101.737Z" fill="#41479b"/><g transform="translate(1.062 89.743)"><path d="M15.038,108.01l.146.437.46,0a.062.062,0,0,1,.036.112l-.37.273.139.439a.062.062,0,0,1-.1.069l-.374-.268-.374.268a.062.062,0,0,1-.1-.069l.139-.439-.37-.273a.062.062,0,0,1,.036-.112l.46,0,.146-.437A.062.062,0,0,1,15.038,108.01Z" transform="translate(-14.253 -107.968)" fill="#f5f5f5"/><path d="M15.038,138.665l.146.437.46,0a.062.062,0,0,1,.036.112l-.37.273.139.439a.062.062,0,0,1-.1.069l-.374-.268L14.6,140a.062.062,0,0,1-.1-.069l.139-.439-.37-.273a.062.062,0,0,1,.036-.112l.46,0,.146-.437A.062.062,0,0,1,15.038,138.665Z" transform="translate(-14.253 -136.338)" fill="#f5f5f5"/><path d="M15.038,169.319l.146.437.46,0a.062.062,0,0,1,.036.112l-.37.273.139.439a.062.062,0,0,1-.1.069l-.374-.268-.374.268a.062.062,0,0,1-.1-.069l.139-.439-.37-.274a.062.062,0,0,1,.036-.112l.46,0,.146-.437A.062.062,0,0,1,15.038,169.319Z" transform="translate(-14.253 -164.708)" fill="#f5f5f5"/><path d="M15.038,199.973l.146.437.46,0a.062.062,0,0,1,.036.112l-.37.274.139.439a.062.062,0,0,1-.1.069l-.374-.268-.374.268a.062.062,0,0,1-.1-.069l.139-.439-.37-.273a.062.062,0,0,1,.036-.112l.46,0,.146-.437A.062.062,0,0,1,15.038,199.973Z" transform="translate(-14.253 -193.077)" fill="#f5f5f5"/><path d="M15.038,230.628l.146.437.46,0a.062.062,0,0,1,.036.112l-.37.274.139.439a.062.062,0,0,1-.1.069l-.374-.268-.374.268a.062.062,0,0,1-.1-.069l.139-.439-.37-.274a.062.062,0,0,1,.036-.112l.46,0,.146-.437A.062.062,0,0,1,15.038,230.628Z" transform="translate(-14.253 -221.447)" fill="#f5f5f5"/><path d="M38.831,123.04l.146.437.46,0a.062.062,0,0,1,.036.112l-.37.274.139.439a.062.062,0,0,1-.1.069l-.374-.268-.374.268a.062.062,0,0,1-.1-.069l.139-.439-.37-.274a.062.062,0,0,1,.036-.112l.46,0,.146-.437A.062.062,0,0,1,38.831,123.04Z" transform="translate(-36.272 -121.877)" fill="#f5f5f5"/><path d="M38.831,153.694l.146.437.46,0a.062.062,0,0,1,.036.112l-.37.274.139.439a.062.062,0,0,1-.1.069l-.374-.268-.374.268a.062.062,0,0,1-.1-.069l.139-.439-.37-.274a.062.062,0,0,1,.036-.112l.46,0,.146-.437A.062.062,0,0,1,38.831,153.694Z" transform="translate(-36.272 -150.247)" fill="#f5f5f5"/><path d="M38.831,184.348l.146.437.46,0a.062.062,0,0,1,.036.112l-.37.274.139.439a.062.062,0,0,1-.1.069l-.374-.268-.374.268a.062.062,0,0,1-.1-.069l.139-.439-.37-.274a.062.062,0,0,1,.036-.112l.46,0,.146-.437A.062.062,0,0,1,38.831,184.348Z" transform="translate(-36.272 -178.617)" fill="#f5f5f5"/><path d="M38.831,215l.146.437.46,0a.062.062,0,0,1,.036.112l-.37.274.139.439a.062.062,0,0,1-.1.069l-.374-.268-.374.268a.062.062,0,0,1-.1-.069l.139-.439-.37-.274a.062.062,0,0,1,.036-.112l.46,0,.146-.437A.062.062,0,0,1,38.831,215Z" transform="translate(-36.272 -206.987)" fill="#f5f5f5"/><path d="M62.624,108.01l.146.437.46,0a.062.062,0,0,1,.036.112l-.37.273.139.439a.062.062,0,0,1-.1.069l-.374-.268-.375.268a.062.062,0,0,1-.1-.069l.139-.439-.37-.273a.062.062,0,0,1,.036-.112l.46,0,.146-.437A.062.062,0,0,1,62.624,108.01Z" transform="translate(-58.292 -107.968)" fill="#f5f5f5"/><path d="M62.624,138.665l.146.437.46,0a.062.062,0,0,1,.036.112l-.37.273.139.439a.062.062,0,0,1-.1.069l-.374-.268-.375.268a.062.062,0,0,1-.1-.069l.139-.439-.37-.273a.062.062,0,0,1,.036-.112l.46,0,.146-.437A.062.062,0,0,1,62.624,138.665Z" transform="translate(-58.292 -136.338)" fill="#f5f5f5"/><path d="M62.624,169.319l.146.437.46,0a.062.062,0,0,1,.036.112l-.37.274.139.439a.062.062,0,0,1-.1.069l-.374-.268-.375.268a.062.062,0,0,1-.1-.069l.139-.439-.37-.274a.062.062,0,0,1,.036-.112l.46,0,.146-.437A.062.062,0,0,1,62.624,169.319Z" transform="translate(-58.292 -164.708)" fill="#f5f5f5"/><path d="M62.624,199.973l.146.437.46,0a.062.062,0,0,1,.036.112l-.37.274.139.439a.062.062,0,0,1-.1.069l-.374-.268-.375.268a.062.062,0,0,1-.1-.069l.139-.439-.37-.274a.062.062,0,0,1,.036-.112l.46,0,.146-.437A.062.062,0,0,1,62.624,199.973Z" transform="translate(-58.292 -193.077)" fill="#f5f5f5"/><path d="M62.624,230.628l.146.437.46,0a.062.062,0,0,1,.036.112l-.37.274.139.439a.062.062,0,0,1-.1.069l-.374-.268-.375.268a.062.062,0,0,1-.1-.069l.139-.439-.37-.274a.062.062,0,0,1,.036-.112l.46,0,.146-.437A.062.062,0,0,1,62.624,230.628Z" transform="translate(-58.292 -221.447)" fill="#f5f5f5"/><path d="M86.418,123.04l.146.437.46,0a.062.062,0,0,1,.036.112l-.37.274.139.439a.062.062,0,0,1-.1.069l-.374-.268-.375.268a.062.062,0,0,1-.1-.069l.139-.439-.37-.274a.062.062,0,0,1,.036-.112l.46,0,.146-.437A.062.062,0,0,1,86.418,123.04Z" transform="translate(-80.313 -121.877)" fill="#f5f5f5"/><path d="M86.418,153.694l.146.437.46,0a.062.062,0,0,1,.036.112l-.37.274.139.439a.062.062,0,0,1-.1.069l-.374-.268-.375.268a.062.062,0,0,1-.1-.069l.139-.439-.37-.274a.062.062,0,0,1,.036-.112l.46,0,.146-.437A.062.062,0,0,1,86.418,153.694Z" transform="translate(-80.313 -150.247)" fill="#f5f5f5"/><path d="M86.418,184.348l.146.437.46,0a.062.062,0,0,1,.036.112l-.37.274.139.439a.062.062,0,0,1-.1.069l-.374-.268-.375.268a.062.062,0,0,1-.1-.069l.139-.439-.37-.274a.062.062,0,0,1,.036-.112l.46,0,.146-.437A.062.062,0,0,1,86.418,184.348Z" transform="translate(-80.313 -178.617)" fill="#f5f5f5"/><path d="M86.418,215l.146.437.46,0a.062.062,0,0,1,.036.112l-.37.274.139.439a.062.062,0,0,1-.1.069l-.374-.268-.375.268a.062.062,0,0,1-.1-.069l.139-.439-.37-.274a.062.062,0,0,1,.036-.112l.46,0L86.3,215A.062.062,0,0,1,86.418,215Z" transform="translate(-80.313 -206.987)" fill="#f5f5f5"/><path d="M110.21,108.01l.146.437.46,0a.062.062,0,0,1,.036.112l-.37.273.139.439a.062.062,0,0,1-.1.069l-.375-.268-.374.268a.062.062,0,0,1-.1-.069l.139-.439-.37-.273a.062.062,0,0,1,.036-.112l.46,0,.146-.437A.062.062,0,0,1,110.21,108.01Z" transform="translate(-102.332 -107.968)" fill="#f5f5f5"/><path d="M110.21,138.665l.146.437.46,0a.062.062,0,0,1,.036.112l-.37.273.139.439a.062.062,0,0,1-.1.069l-.375-.268-.374.268a.062.062,0,0,1-.1-.069l.139-.439-.37-.273a.062.062,0,0,1,.036-.112l.46,0,.146-.437A.062.062,0,0,1,110.21,138.665Z" transform="translate(-102.332 -136.338)" fill="#f5f5f5"/><path d="M110.21,169.319l.146.437.46,0a.062.062,0,0,1,.036.112l-.37.274.139.439a.062.062,0,0,1-.1.069l-.375-.268-.374.268a.062.062,0,0,1-.1-.069l.139-.439-.37-.273a.062.062,0,0,1,.036-.112l.46,0,.146-.437A.062.062,0,0,1,110.21,169.319Z" transform="translate(-102.332 -164.707)" fill="#f5f5f5"/><path d="M110.21,199.973l.146.437.46,0a.062.062,0,0,1,.036.112l-.37.274.139.439a.062.062,0,0,1-.1.069l-.375-.268-.374.268a.062.062,0,0,1-.1-.069l.139-.439-.37-.274a.062.062,0,0,1,.036-.112l.46,0,.146-.437A.062.062,0,0,1,110.21,199.973Z" transform="translate(-102.332 -193.077)" fill="#f5f5f5"/><path d="M110.21,230.628l.146.437.46,0a.062.062,0,0,1,.036.112l-.37.274.139.439a.062.062,0,0,1-.1.069l-.375-.268-.374.268a.062.062,0,0,1-.1-.069l.139-.439-.37-.274a.062.062,0,0,1,.036-.112l.46,0,.146-.437A.062.062,0,0,1,110.21,230.628Z" transform="translate(-102.332 -221.447)" fill="#f5f5f5"/><path d="M134,123.04l.146.437.46,0a.062.062,0,0,1,.036.112l-.37.274.139.439a.062.062,0,0,1-.1.069l-.374-.268-.375.268a.062.062,0,0,1-.1-.069l.139-.439-.37-.274a.062.062,0,0,1,.036-.112l.46,0,.146-.437A.062.062,0,0,1,134,123.04Z" transform="translate(-124.353 -121.877)" fill="#f5f5f5"/><path d="M134,153.694l.146.437.46,0a.062.062,0,0,1,.036.112l-.37.274.139.439a.062.062,0,0,1-.1.069l-.374-.268-.375.268a.062.062,0,0,1-.1-.069l.139-.439-.37-.274a.062.062,0,0,1,.036-.112l.46,0,.146-.437A.062.062,0,0,1,134,153.694Z" transform="translate(-124.353 -150.247)" fill="#f5f5f5"/><path d="M134,184.348l.146.437.46,0a.062.062,0,0,1,.036.112l-.37.274.139.439a.062.062,0,0,1-.1.069l-.374-.268-.375.268a.062.062,0,0,1-.1-.069l.139-.439-.37-.274a.062.062,0,0,1,.036-.112l.46,0,.146-.437A.062.062,0,0,1,134,184.348Z" transform="translate(-124.353 -178.617)" fill="#f5f5f5"/><path d="M134,215l.146.437.46,0a.062.062,0,0,1,.036.112l-.37.274.139.439a.062.062,0,0,1-.1.069l-.374-.268-.375.268a.062.062,0,0,1-.1-.069l.139-.439-.37-.274a.062.062,0,0,1,.036-.112l.46,0,.146-.437A.062.062,0,0,1,134,215Z" transform="translate(-124.353 -206.987)" fill="#f5f5f5"/><path d="M157.8,108.01l.146.437.46,0a.062.062,0,0,1,.036.112l-.37.273.139.439a.062.062,0,0,1-.1.069l-.375-.268-.374.268a.062.062,0,0,1-.1-.069l.139-.439-.37-.273a.062.062,0,0,1,.036-.112l.46,0,.146-.437A.062.062,0,0,1,157.8,108.01Z" transform="translate(-146.373 -107.968)" fill="#f5f5f5"/><path d="M157.8,138.665l.146.437.46,0a.062.062,0,0,1,.036.112l-.37.273.139.439a.062.062,0,0,1-.1.069l-.375-.268-.374.268a.062.062,0,0,1-.1-.069l.139-.439-.37-.273a.062.062,0,0,1,.036-.112l.46,0,.146-.437A.062.062,0,0,1,157.8,138.665Z" transform="translate(-146.373 -136.338)" fill="#f5f5f5"/><path d="M157.8,169.319l.146.437.46,0a.062.062,0,0,1,.036.112l-.37.274.139.439a.062.062,0,0,1-.1.069l-.375-.268-.374.268a.062.062,0,0,1-.1-.069l.139-.439-.37-.274a.062.062,0,0,1,.036-.112l.46,0,.146-.437A.062.062,0,0,1,157.8,169.319Z" transform="translate(-146.373 -164.708)" fill="#f5f5f5"/><path d="M157.8,199.973l.146.437.46,0a.062.062,0,0,1,.036.112l-.37.274.139.439a.062.062,0,0,1-.1.069l-.375-.268-.374.268a.062.062,0,0,1-.1-.069l.139-.439-.37-.274a.062.062,0,0,1,.036-.112l.46,0,.146-.437A.062.062,0,0,1,157.8,199.973Z" transform="translate(-146.373 -193.077)" fill="#f5f5f5"/><path d="M157.8,230.628l.146.437.46,0a.062.062,0,0,1,.036.112l-.37.274.139.439a.062.062,0,0,1-.1.069l-.375-.268-.374.268a.062.062,0,0,1-.1-.069l.139-.439-.37-.274a.062.062,0,0,1,.036-.112l.46,0,.146-.437A.062.062,0,0,1,157.8,230.628Z" transform="translate(-146.373 -221.447)" fill="#f5f5f5"/><path d="M181.591,123.04l.146.437.46,0a.062.062,0,0,1,.036.112l-.37.274.139.439a.062.062,0,0,1-.1.069l-.375-.268-.374.268a.062.062,0,0,1-.1-.069l.139-.439-.37-.274a.062.062,0,0,1,.036-.112l.46,0,.146-.437A.062.062,0,0,1,181.591,123.04Z" transform="translate(-168.393 -121.877)" fill="#f5f5f5"/><path d="M181.591,153.694l.146.437.46,0a.062.062,0,0,1,.036.112l-.37.274.139.439a.062.062,0,0,1-.1.069l-.375-.268-.374.268a.062.062,0,0,1-.1-.069l.139-.439-.37-.274a.062.062,0,0,1,.036-.112l.46,0,.146-.437A.062.062,0,0,1,181.591,153.694Z" transform="translate(-168.393 -150.247)" fill="#f5f5f5"/><path d="M181.591,184.348l.146.437.46,0a.062.062,0,0,1,.036.112l-.37.274.139.439a.062.062,0,0,1-.1.069l-.375-.268-.374.268a.062.062,0,0,1-.1-.069l.139-.439-.37-.274a.062.062,0,0,1,.036-.112l.46,0,.146-.437A.062.062,0,0,1,181.591,184.348Z" transform="translate(-168.393 -178.617)" fill="#f5f5f5"/><path d="M181.591,215l.146.437.46,0a.062.062,0,0,1,.036.112l-.37.274.139.439a.062.062,0,0,1-.1.069l-.375-.268-.374.268a.062.062,0,0,1-.1-.069l.139-.439-.37-.274a.062.062,0,0,1,.036-.112l.46,0,.146-.437A.062.062,0,0,1,181.591,215Z" transform="translate(-168.393 -206.987)" fill="#f5f5f5"/><path d="M205.385,108.01l.146.437.46,0a.062.062,0,0,1,.036.112l-.37.273.139.439a.062.062,0,0,1-.1.069l-.374-.268-.374.268a.062.062,0,0,1-.1-.069l.139-.439-.37-.273a.062.062,0,0,1,.036-.112l.46,0,.146-.437A.062.062,0,0,1,205.385,108.01Z" transform="translate(-190.414 -107.968)" fill="#f5f5f5"/><path d="M205.385,138.665l.146.437.46,0a.062.062,0,0,1,.036.112l-.37.273.139.439a.062.062,0,0,1-.1.069l-.374-.268-.374.268a.062.062,0,0,1-.1-.069l.139-.439-.37-.273a.062.062,0,0,1,.036-.112l.46,0,.146-.437A.062.062,0,0,1,205.385,138.665Z" transform="translate(-190.414 -136.338)" fill="#f5f5f5"/><path d="M205.385,169.319l.146.437.46,0a.062.062,0,0,1,.036.112l-.37.274.139.439a.062.062,0,0,1-.1.069l-.374-.268-.374.268a.062.062,0,0,1-.1-.069l.139-.439-.37-.274a.062.062,0,0,1,.036-.112l.46,0,.146-.437A.062.062,0,0,1,205.385,169.319Z" transform="translate(-190.414 -164.708)" fill="#f5f5f5"/><path d="M205.385,199.973l.146.437.46,0a.062.062,0,0,1,.036.112l-.37.274.139.439a.062.062,0,0,1-.1.069l-.374-.268-.374.268a.062.062,0,0,1-.1-.069L205,200.8l-.37-.274a.062.062,0,0,1,.036-.112l.46,0,.146-.437A.062.062,0,0,1,205.385,199.973Z" transform="translate(-190.414 -193.077)" fill="#f5f5f5"/><path d="M205.385,230.628l.146.437.46,0a.062.062,0,0,1,.036.112l-.37.274.139.439a.062.062,0,0,1-.1.069l-.374-.268-.374.268a.062.062,0,0,1-.1-.069l.139-.439-.37-.274a.062.062,0,0,1,.036-.112l.46,0,.146-.437A.062.062,0,0,1,205.385,230.628Z" transform="translate(-190.414 -221.447)" fill="#f5f5f5"/></g></g></svg>