<svg xmlns="http://www.w3.org/2000/svg" width="20" height="20" viewBox="0 0 20 20"><g transform="translate(-327 -233)"><g transform="translate(-4 -193)"><rect width="20" height="20" rx="10" transform="translate(331 426)" fill="#5fbd5d"/><g transform="translate(336.167 432.325)"><g transform="translate(0 0)"><path d="M9.557,51.214a.387.387,0,0,0-.547-.01l-.01.01-6.3,6.3L.655,55.468a.387.387,0,0,0-.547.547l2.32,2.32a.387.387,0,0,0,.547,0l6.573-6.573A.387.387,0,0,0,9.557,51.214Z" transform="translate(0 -51.096)" fill="#f2f2f2"/><path d="M9.279,50.6a.887.887,0,0,1,.62,1.521l-6.57,6.57a.887.887,0,0,1-1.254,0L-.251,56.362a.883.883,0,0,1,0-1.232.891.891,0,0,1,.638-.271A.882.882,0,0,1,1,55.108l.006.006L2.7,56.807l5.943-5.943.018-.018A.883.883,0,0,1,9.279,50.6Z" transform="translate(0 -51.096)" fill="#f2f2f2"/></g></g></g></g></svg>