<svg id="messages_bold" data-name="messages/bold" xmlns="http://www.w3.org/2000/svg" width="24" height="24" viewBox="0 0 24 24">
  <g id="vuesax_bold_messages" data-name="vuesax/bold/messages">
    <g id="messages">
      <path id="Vector" d="M0,0H24V24H0Z" fill="none" opacity="0"/>
      <path id="Vector-2" data-name="Vector" d="M12.37,6.09a6.854,6.854,0,0,1-3,5.6L8.03,14.64a1,1,0,0,1-1.68.23L4.87,13.09A7.743,7.743,0,0,1,0,11.41l.6-.71A8.719,8.719,0,0,0,8.87,2.23,8.337,8.337,0,0,0,8.56,0,6.938,6.938,0,0,1,12.37,6.09Z" transform="translate(9.63 6.77)" fill="#dd4e4a"/>
      <path id="Vector-3" data-name="Vector" d="M14.3,4.07A7.514,7.514,0,0,0,7.5,0,7.262,7.262,0,0,0,0,7a6.854,6.854,0,0,0,3,5.6l1.34,2.95a1,1,0,0,0,1.68.23l.55-.66L7.5,14A7.262,7.262,0,0,0,15,7,6.458,6.458,0,0,0,14.3,4.07ZM10,7.75H5a.75.75,0,0,1,0-1.5h5a.75.75,0,0,1,0,1.5Z" transform="translate(2 2)" fill="#dd4e4a"/>
    </g>
  </g>
</svg>
