<svg xmlns="http://www.w3.org/2000/svg" width="376.828" height="183.483" viewBox="0 0 376.828 183.483">
  <g id="Group_56220" data-name="Group 56220" transform="translate(-21.419 -267.728)">
    <path id="Path_11924" data-name="Path 11924" d="M1397.205,999.7c-1.473,2.627-4.285,7.855-5.838,10.681-.6,1.088-1.008,1.82-1.276,2.322h28.784c.1-.252.207-.534.328-.849l4.617-11.995c.367-.953.617-1.6.769-2.043h-26.271C1398.055,998.21,1397.708,998.8,1397.205,999.7Z" transform="translate(-1149.955 -613.239)" fill="#5fbd5d" fill-rule="evenodd"/>
    <path id="Path_11925" data-name="Path 11925" d="M915.728,621.657v73.024a9.77,9.77,0,0,1-9.741,9.741h0a9.77,9.77,0,0,1-9.741-9.741V621.657Z" transform="translate(-734.738 -296.97)" fill="#2685c7" fill-rule="evenodd"/>
    <path id="Path_11926" data-name="Path 11926" d="M397.371,449.021a63.766,63.766,0,0,0-20.083-2.562c-6.845.38-11.635,3.491-14.2-.812-6.146-10.323-1.246-34.372-2.008-40.683-1.335-11.057-1.656-17.467-2.457-23.129s-2.083-10.577-4.674-15.01-6.49-8.386-8.734-11.244-2.831-4.62-4.006-8.493-2.938-9.855-4.754-14.956-3.686-9.321-6.357-12.232-6.143-4.514-11.992-4.353-14.075,2.083-18.4,3.151-4.754,1.282-5.9-.027-3.018-4.14-1.415-6.464,6.677-4.14,13.621-5.1,15.758-1.068,21.74.08,9.134,3.552,12.126,7.558,5.822,9.615,6.677,14.529-.267,9.134-2.8,11.885-6.49,4.033-9.348,5.983-4.62,4.567-5.956,5.074-2.244-1.095-2.965-3.365-1.255-5.208-.775-7.024,1.977-2.511,3.419-3.659,2.831-2.751,3.045-4.354a3.1,3.1,0,0,0-2.4-3.526c-1.656-.32-4.006.641-5.689,3.205s-2.7,6.731-3.205,7.585-.507-1.6-.267-4.006.721-4.754-.427-5.475-3.926.187-5.342-.107-1.469-1.79-1.255-3.392.694-3.312-.374-4.193-3.686-.935-5.9-.908a14.967,14.967,0,0,0-5.422.721c-1.389.588-2.35,1.656-3.018,3.926a33.029,33.029,0,0,0-.988,8.974,76.813,76.813,0,0,0,1.2,10.55c.668,4.327,1.522,9.989,2.324,13.14s1.549,3.793,3.94,4.153a29.1,29.1,0,0,0,10.79-.641c4.367-1.082,9.067-3.325,12.887-4.741s6.757-2,6.864-1.389-2.618,2.43-6.811,4.861-9.855,5.475-13.968,8.974a27.959,27.959,0,0,0-8.306,11.8c-1.629,4.353-2.323,9.107-3.1,13.7s-1.629,9.027-4.22,12.446-6.917,5.822-8.947,7.024-1.763,1.2-.374,1.549a29.308,29.308,0,0,1,5.769,2c1.87.962,3.1,2.19,1.87,2.217s-4.914-1.148-9.094-1.856-8.854-.948-13.875-1.549-10.389-1.562-13.447-3.125-3.806-3.726-5.061-5.609a15.032,15.032,0,0,0-4.807-4.527,12.084,12.084,0,0,0-5.889-1.616c-2.284-.093-5.035.2-6.437.04s-1.456-.775-1.469-1.843.013-2.59.053-3.725.094-1.883,6.985-2.577,20.619-1.335,27.483-1.6,6.864-.161,6.867-1.249.009-3.373-.094-4.515-.317-1.142-7.318-.747-20.788,1.183-28.51.883-9.378-1.689-10.259-3.452a12.992,12.992,0,0,1-.908-6.25,27.551,27.551,0,0,1,.855-6.517c.507-1.6,1.255-2.244,3.766-2.564s6.784-.321,10.149-.481,5.822-.481,7.051-.294,1.229.881,1.122,2.884-.321,5.315-.267,7.4.374,2.938,1.643,3.379a12.438,12.438,0,0,0,4.607.32c1.122-.147,1.148-.467,1.173-2.65s.048-6.227-.073-8.457-.383-2.646,2.423-2.687,8.682.293,11.731.305,3.271-.3,3.071-3.174-.823-8.324-1.161-12.336-.392-6.589-.463-8.135-.16-2.058-.134-2.385.17-.468,1.977-1.14,5.279-1.873,7.416-2.671a20.87,20.87,0,0,1,3.368-1.2c.431-.007.491.374.944,1.518s1.3,3.051,1.671,4.059.265,1.118-2.185,2.107-7.244,2.859-10.549,4.268-5.121,2.357-6.064,2.785-1.012.336-1.106-1.7-.211-6.017-.236-8.222.042-2.631-.3-2.805-1.088-.093-3.612-.013-6.824.16-10.99.147-8.2-.12-10.243.053-2.1.628-2.056,2.871.174,6.276.24,8.68a19.866,19.866,0,0,0,.24,3.819c.174.641.521,1.148,2.511,1.215s5.622-.307,9.281-.494a66.2,66.2,0,0,1,9.655.08c2.31.267,3.245.8,3.192,1.362s-1.1,1.148-4.954,1.375-10.536.093-16.679.147-11.752.294-17.494.04-11.618-1-14.882-1.135-3.916.347-4.242,1.242-.326,2.2-.326,6.437,0,11.391-.849,22.021-2.547,24.732-3.4,31.783-.849,7.051,3.745,6.677,13.781-1.122,19.176-1.175,7,.588,7.745.855.641.16-.694-.748-3.9-2.617-4.941-4.994-.561-5.422,1.282-6.73,5.048-.881,7.158-.561,3.125.534,3.125-.267-1.015-2.617-.187-3.178,3.5.134,5.341.908,2.858,1.629,2.591,2.831-1.816,2.751-3.606,5.822a87.743,87.743,0,0,0-4.941,10.523c-1.122,2.858-1.335,3.979-1.068,4.54s1.015.561,4.834.614a131.7,131.7,0,0,1,18.535,1.362c7.825,1.2,16.586,3.5,23.557,4.727s12.152,1.389,15.891.588a16.749,16.749,0,0,0,8.306-4.647c2.27-2.083,4.514-4.487,7.131-7.131s5.609-5.528,7.906-9.535a56.26,56.26,0,0,0,4.46-11.031c.561-1.9.08-.561-1.5,2.057s-4.246,6.517-6.7,9.748a32.368,32.368,0,0,1-8.386,8.226c-3.686,2.431-8.814,4.728-12.232,8.173-12.687,12.786-61.005.353-98.977,9.914-30.719,7.734-56.22-1.323-64.829-25.228-3.155-8.76-5.5-20.641-6.813-28.092s-1.577-10.471,1.284-13.314,8.851-5.507,13.332-9.33,7.452-8.8,9.273-12.121,2.492-4.966,3.448-6.614,2.2-3.292,3.96-3.779,4.044.185,5.79.235,2.954-.52,2.836-1.359-1.561-1.947-2.886-3.1-2.534-2.366-1.191-3.34,5.236-1.712,8.021-1.8a12.1,12.1,0,0,1,5.857,1.124c1.393.638,2.5,1.342,3.155,1.242s.856-1.007,1.007-1.93a4.82,4.82,0,0,0-.587-3.474,9.058,9.058,0,0,0-6.7-4.716c-4.078-.822-10.455-.185-14.885.94s-6.914,2.735-9.028,4.95-3.86,5.034-6.176,6.8-5.2,2.467-8.233,3.2-6.206,1.5-7.9,1.284-1.91-1.421-1.178-2.073,2.41-.752,4.407-.954,4.313-.5,5.051,1.426-.1,6.092-.47,10.673-.268,9.582-1.9,11.243-4.984-.017-7.854-4.632-5.253-12.166-9.467-17.254-10.259-7.711-16.411-12.363S92.9,324.072,87.488,318.652s-9.976-9.582-11.7-18.561-.606-22.775,9.077-28.43,27.931-3.169,35.885,2.261,5.613,13.8,4.365,19.68-1.405,9.255-2.02,13.73-1.689,10.046-4.441,14.678-7.182,8.324-11.546,7.753-8.659-5.4-12.193-9.434-6.306-7.258-8.733-9.878-4.507-4.635-4.363-8.424,2.514-9.356,5.209-7.843,5.716,10.105,7.6,11.414,2.618-4.665,4.5-7.35,4.9-2.081,6.612-3.256,2.114-4.128,2.708-6.245a5.569,5.569,0,0,1,3.685-4.323,20.652,20.652,0,0,1,9.263-1.091c3.131.405,5.568,1.787,7.1.159s2.145-6.265-1.809-7.761-12.479.148-20.466,1.256-15.439,1.678-15.12,7.87,8.407,18.006,9.474,26.3-4.887,13.064-5.548,17.363,3.97,8.125,8.334,12.287a179.968,179.968,0,0,1,12.72,13.66c4.262,5,8.693,10.505,10.606,14.566s1.309,6.679-.067,5.5-3.524-6.142-9.5-10.774-15.774-8.928-21-14.687S90.218,336.094,87.5,333.14,80,331.5,76.605,333.6a21.742,21.742,0,0,0-7.055,7.672c-1.645,2.685-2.92,5.169-1.678,6.612s5,1.846,8.357,3.658,6.31,5.034,9.867,10,7.719,11.68,10.807,17.117,5.1,9.6,6.142,13.123a16.153,16.153,0,0,1-.168,10.438,69.7,69.7,0,0,1-7.216,14.533c-3.323,5.337-7.35,10.841-7.854,13.291s2.517,1.846,5.5-.134a32.381,32.381,0,0,0,8.391-9.062,70.963,70.963,0,0,0,5.84-11.243c1.443-3.423,2.383-6.176,1.98-7.921s-2.148-2.484-4.5-4.162-5.3-4.3-9.191-10.59-8.712-16.264-13.377-22.843S73.285,354.328,68.85,353s-8.8-.788-11.248,1.26-2.987,5.6-3.222,10.337a63.058,63.058,0,0,0,.805,15.137c.973,4.5,2.853,7.585,5.739,15.875s6.78,21.782,9.565,29.569,4.464,9.867,7.048,11.579a20.652,20.652,0,0,0,10.237,3.289c4.162.235,8.995-.638,14.465-1.812s11.579-2.651,18.963-8.089,16.043-14.835,21.01-19.433,6.243-4.4,9.331-5.806,7.988-4.43,11.411-5.571,5.37-.4,7.35-.1a13.144,13.144,0,0,0,5.84-.4c1.846-.57,3.524-1.577,2.886-2.584s-3.591-2.014-4.967-2.752-1.175-1.208.571-1.611,5.034-.738,6.243-1.645.336-2.383-1.611-3.088-4.967-.638-6.847-1.175-2.618-1.678-2.215-2.249,1.947-.57,4.095-.6,4.9-.1,5.538-.839-.839-2.148-3.558-3.188a36.683,36.683,0,0,0-8.928-1.88c-2.249-.168-2.786.168-5.236,1.745s-6.813,4.4-10.639,6.948-7.115,4.833-11.109,7.787-8.693,6.578-13.123,8.726a35.289,35.289,0,0,1-10.874,3.121c-2.282.3-2.685.235-3.256,1.108a40.346,40.346,0,0,0-2.551,5.907,83.567,83.567,0,0,1-5.873,12.787c-2.886,4.934-6.914,10.17-13.022,13.224-5.092,2.546-15.491,12.512-44.011,4.227-7.89-2.292-20.166,1.223-25.286,4.076" transform="translate(0)" fill="none" stroke="#000" stroke-linecap="round" stroke-linejoin="round" stroke-width="1.4" fill-rule="evenodd"/>
    <circle id="Ellipse_540" data-name="Ellipse 540" cx="3.494" cy="3.494" r="3.494" transform="translate(172.651 297.202) rotate(-1.951)" fill="#2685c7"/>
    <path id="Path_11927" data-name="Path 11927" d="M900.842,387.9a2.047,2.047,0,1,0-2.047-2.047A2.051,2.051,0,0,0,900.842,387.9Z" transform="translate(-736.881 -96.993)" fill="#2685c7" fill-rule="evenodd"/>
    <path id="Path_11928" data-name="Path 11928" d="M1002.231,345.3a2.831,2.831,0,1,0-2.831-2.831A2.836,2.836,0,0,0,1002.231,345.3Z" transform="translate(-821.468 -59.856)" fill="#2685c7" fill-rule="evenodd"/>
    <circle id="Ellipse_541" data-name="Ellipse 541" cx="2.608" cy="2.608" r="2.608" transform="matrix(0.98, -0.199, 0.199, 0.98, 166.102, 312.265)" fill="#2685c7"/>
    <circle id="Ellipse_542" data-name="Ellipse 542" cx="4.281" cy="4.281" r="4.281" transform="translate(157.928 271.112) rotate(-13.231)" fill="#2685c7"/>
  </g>
</svg>
