<svg xmlns="http://www.w3.org/2000/svg" width="38.158" height="25" viewBox="0 0 38.158 25"><g transform="translate(0 -88.276)"><path d="M35.3,113.276H2.858A2.858,2.858,0,0,1,0,110.418V91.134a2.858,2.858,0,0,1,2.858-2.858H35.3a2.858,2.858,0,0,1,2.858,2.858v19.285A2.858,2.858,0,0,1,35.3,113.276Z" fill="#73af00"/><g transform="translate(7.544 93.539)"><path d="M102.477,168.768c.065.416.316.546.534.529a.537.537,0,0,0,.483-.5v-1.426a.13.13,0,1,1,.259,0V168.8a.518.518,0,0,0,.711.481l.13-.052c.012,1.2-.061,2.25-.062,2.269a.259.259,0,0,0,.24.277h.019a.259.259,0,0,0,.258-.241c.006-.084.086-1.237.062-2.513l.078-.031a.26.26,0,0,1,.212.009.741.741,0,0,0,.855-.139l.047-.047a.774.774,0,0,0,.188-.8l-.221-.662a.259.259,0,0,0,.192-.48l-.519-.259a.259.259,0,0,0-.362.314l.417,1.252a.258.258,0,0,1-.063.265l-.047.047a.223.223,0,0,1-.257.042.775.775,0,0,0-.539-.054,8.944,8.944,0,0,0-.317-2.234.259.259,0,0,0-.492.164,8.917,8.917,0,0,1,.3,2.264l-.311.124v-1.432a.648.648,0,1,0-1.3,0v1.255l-.265-1.307a.259.259,0,1,0-.508.1Z" transform="translate(-102.126 -165.535)" fill="#f5f5f5"/><path d="M109.419,163.372a.259.259,0,0,0,.259-.259v-.259a.259.259,0,1,0-.519,0v.259A.259.259,0,0,0,109.419,163.372Z" transform="translate(-108.569 -162.319)" fill="#f5f5f5"/><path d="M144.216,163.113h.259a.259.259,0,1,0,0-.519h-.259a.259.259,0,1,0,0,.519Z" transform="translate(-140.772 -162.318)" fill="#f5f5f5"/><path d="M107.1,214.826l-1.3.778a.259.259,0,1,0,.267.445l1.3-.778a.259.259,0,1,0-.267-.445Z" transform="translate(-105.347 -210.624)" fill="#f5f5f5"/><path d="M120.187,170.2l.006,0a.592.592,0,0,0,.12.244.509.509,0,0,0,.442.172.715.715,0,0,0,.539-.284.473.473,0,0,0,.055.032.491.491,0,0,0,.457-.015.985.985,0,0,0,.464-.913.265.265,0,0,0-.27-.246.26.26,0,0,0-.248.269s.006.311-.182.425a.632.632,0,0,1-.081-.219.259.259,0,0,0-.515.043c0,.038-.008.371-.265.4a.633.633,0,0,1,0-.339.259.259,0,0,0-.4-.275l-.145.1c-.069-1.5-.227-3.256-.229-3.279a.259.259,0,1,0-.517.047c0,.024.185,2.052.242,3.6l-.04.038a.668.668,0,0,0-.568-.446.946.946,0,0,0-.913.578.613.613,0,0,0,.2.773.864.864,0,0,0,.773.035,2.169,2.169,0,0,1-.422.8,1.088,1.088,0,0,1-.829.422.682.682,0,0,1-.5-.215,1.481,1.481,0,0,1-.274-.928.259.259,0,0,0-.245-.273.254.254,0,0,0-.273.245,1.989,1.989,0,0,0,.407,1.3,1.189,1.189,0,0,0,.868.385h.052a1.58,1.58,0,0,0,1.19-.6,2.682,2.682,0,0,0,.594-1.329,2.939,2.939,0,0,1-1.244,2.329,1.3,1.3,0,0,1-1.3.095,1.112,1.112,0,0,1-.571-1.1.259.259,0,0,0-.515-.064,1.629,1.629,0,0,0,.856,1.626,1.763,1.763,0,0,0,.785.187,1.919,1.919,0,0,0,1.017-.307,3.448,3.448,0,0,0,1.489-2.771C120.2,170.573,120.193,170.391,120.187,170.2Zm-1.564.267c-.046-.031-.01-.129,0-.148a.441.441,0,0,1,.362-.255H119c.033,0,.121.011.159.207,0,.021.007.042.01.064C118.884,170.5,118.69,170.51,118.624,170.466Z" transform="translate(-114.936 -165.537)" fill="#f5f5f5"/><path d="M102.206,243.706a.26.26,0,0,0-.355.092.533.533,0,0,1-.044.061l-.008-.021a1.744,1.744,0,0,1,.008-.88.259.259,0,0,0-.5-.134,2.233,2.233,0,0,0,.008,1.2c.119.317.3.4.434.408h.035a.681.681,0,0,0,.517-.371A.259.259,0,0,0,102.206,243.706Z" transform="translate(-101.225 -236.392)" fill="#f5f5f5"/><path d="M175.388,164.928a.257.257,0,0,0,.16-.055l1.307-1.026a.249.249,0,0,0,.043-.05.649.649,0,1,0-.745-.058l-.925.727a.259.259,0,0,0,.16.463Zm1.178-1.815a.13.13,0,1,1-.13.13A.13.13,0,0,1,176.566,163.113Z" transform="translate(-169.621 -162.318)" fill="#f5f5f5"/><path d="M185.532,190.445a.259.259,0,0,0-.328.164.793.793,0,0,0,.1.765.523.523,0,0,0,.387.148,1.139,1.139,0,0,0,.358-.066.259.259,0,1,0-.164-.492.9.9,0,0,1-.212.045.5.5,0,0,1,.021-.237A.259.259,0,0,0,185.532,190.445Z" transform="translate(-178.894 -188.081)" fill="#f5f5f5"/><path d="M227.8,163.474a.259.259,0,0,0,.322-.176l.151-.519a.259.259,0,1,0-.5-.145l-.151.519A.259.259,0,0,0,227.8,163.474Z" transform="translate(-218.196 -162.183)" fill="#f5f5f5"/><path d="M206.091,160.159a.259.259,0,1,0,.262-.448c-.052-.03-.045-.116-.043-.133a.2.2,0,0,1,.119-.173.259.259,0,0,0-.154-.5.712.712,0,0,0-.48.61A.639.639,0,0,0,206.091,160.159Z" transform="translate(-197.997 -158.897)" fill="#f5f5f5"/><path d="M179.013,232.189a.259.259,0,0,0-.049.514.487.487,0,0,1,.049.264.259.259,0,0,0,.519,0C179.532,232.2,179.035,232.189,179.013,232.189Z" transform="translate(-172.976 -226.727)" fill="#f5f5f5"/><path d="M234.941,208.571a.6.6,0,0,0,.1.008.886.886,0,0,0,.614-.307.259.259,0,0,0-.367-.367c-.155.155-.239.159-.26.154-.049-.007-.094-.072-.1-.089a.259.259,0,0,0-.462.235A.7.7,0,0,0,234.941,208.571Z" transform="translate(-224.504 -204.183)" fill="#f5f5f5"/><path d="M294.095,191l0-.011a.259.259,0,0,0-.491.166.581.581,0,0,0,.422.4.431.431,0,0,0,.057,0,.635.635,0,0,0,.5-.346.259.259,0,1,0-.432-.288A.8.8,0,0,1,294.095,191Z" transform="translate(-279.249 -188.436)" fill="#f5f5f5"/><path d="M206.632,172.809c0-1.106-.049-2.143-.116-3.052a13.128,13.128,0,0,1,.911,1.847.259.259,0,0,0,.243.168.262.262,0,0,0,.091-.016.259.259,0,0,0,.152-.334,17.177,17.177,0,0,0-1.5-2.842c-.142-1.4-.3-2.284-.3-2.3a.259.259,0,0,0-.51.093c0,.011.084.468.181,1.237-.2-.3-.384-.562-.54-.782l.013,0a.259.259,0,1,0,.164-.492l-.778-.259a.258.258,0,0,0-.292.094.261.261,0,0,0-.038.08.566.566,0,0,0-.541-.13.441.441,0,0,0-.248.461,2.343,2.343,0,0,0,.179.735c.153.433.248.751.087.9a.284.284,0,0,1-.266.093c-.16-.041-.318-.254-.424-.57a.243.243,0,0,0-.021-.036,4.41,4.41,0,0,0-.079-1.435.259.259,0,1,0-.509.1,2.469,2.469,0,0,1-.136,1.848.466.466,0,0,1-.388.176.149.149,0,0,1-.124-.058,2.5,2.5,0,0,1-.138-1.462.26.26,0,0,0-.257-.3c-.446,0-.615.507-.765.955-.065.2-.187.563-.273.6-.157,0-.258-.461-.259-.778a.259.259,0,0,0-.259-.259h0a.259.259,0,0,0-.259.259c0,.6.2,1.3.778,1.3.428,0,.6-.466.746-.9a1.625,1.625,0,0,0,.294.922.665.665,0,0,0,.516.237.987.987,0,0,0,.789-.365,1.193,1.193,0,0,0,.1-.143.967.967,0,0,0,.543.408.747.747,0,0,0,.183.023.823.823,0,0,0,.565-.241.759.759,0,0,0,.087-.1.7.7,0,0,0,.192.029,1.049,1.049,0,0,0,.538-.165.259.259,0,0,0-.279-.437.551.551,0,0,1-.294.077,2.677,2.677,0,0,0-.2-.852,3.611,3.611,0,0,1-.134-.434c.021.018.042.037.061.055a.259.259,0,0,0,.367,0,.25.25,0,0,0,.038-.057c.269.37.822,1.149,1.39,2.046.109,1.1.2,2.509.2,4.052a.259.259,0,0,0,.519,0Z" transform="translate(-192.296 -165.531)" fill="#f5f5f5"/><path d="M293.846,167.112a.259.259,0,1,0,.519,0,2.644,2.644,0,0,0-.287-.894.259.259,0,1,0-.464.232A2.3,2.3,0,0,1,293.846,167.112Z" transform="translate(-279.25 -165.54)" fill="#f5f5f5"/><path d="M263.683,250.136a.259.259,0,0,0-.348.114.742.742,0,0,1-.107.154,1.45,1.45,0,0,1,.068-.48.259.259,0,0,0-.431-.26l-.519.519a.259.259,0,1,0,.367.367l.013-.013a.536.536,0,0,0,.139.273.474.474,0,0,0,.337.149.464.464,0,0,0,.071-.006.844.844,0,0,0,.526-.47A.259.259,0,0,0,263.683,250.136Z" transform="translate(-250.267 -242.83)" fill="#f5f5f5"/><path d="M173.406,206.181h-1.828q.024-.1.05-.185c.729-.152,1.162-.387,1.289-.7a.58.58,0,0,0-.1-.582.643.643,0,0,0-.656-.28c-.369.075-.7.472-.932,1.107a2.981,2.981,0,0,0-1.5.648,4.019,4.019,0,0,0-.538-1.724.259.259,0,1,0-.432.288,3.745,3.745,0,0,1,.475,1.931,2.052,2.052,0,0,1-1.556,2.075c-.291,0-.419-.346-.475-.639a2.978,2.978,0,0,0,1.245-1.373,2.062,2.062,0,0,0-.172-1.406l-.019-.045.016.015a.259.259,0,1,0,.367-.367c-.152-.152-.446-.39-.714-.278a.441.441,0,0,0-.248.461,1.1,1.1,0,0,0,.121.417,1.568,1.568,0,0,1,.146,1.076,2.194,2.194,0,0,1-.849.936.255.255,0,0,0-.2-.1h0a.259.259,0,0,0-.259.259c0,.047,0,.1.005.148a13.64,13.64,0,0,1-1.669.913.259.259,0,0,0,.108.5.256.256,0,0,0,.107-.023,14.932,14.932,0,0,0,1.549-.829,1.009,1.009,0,0,0,.937.853,2.2,2.2,0,0,0,1.735-1.268,1.507,1.507,0,0,0,.173.248,2.923,2.923,0,0,0,1.982.761.259.259,0,0,0,.019-.518.555.555,0,0,1-.324-.157.445.445,0,0,1-.085-.341c.027-.32,1.057-.558,1.966-.573a.26.26,0,0,0,.24-.172l.259-.729a.26.26,0,0,0-.244-.346Zm-1.138-1.238a.094.094,0,0,1,.02,0c.025,0,.064.012.116.083.01.013.041.058.033.078-.03.073-.209.195-.582.3C172.019,205.085,172.179,204.96,172.267,204.943Zm-1.566,3.409a1.588,1.588,0,0,1-.718-.436,1.1,1.1,0,0,1-.23-.913.757.757,0,0,1,.054-.11c.365-.033,1.341.111,1.408.39a.871.871,0,0,0-.548.677A1.094,1.094,0,0,0,170.7,208.352Z" transform="translate(-160.091 -200.962)" fill="#f5f5f5"/><path d="M292.169,167.025l-.259-.778a.259.259,0,0,0-.5.108c.179,1.79.517,5.279.517,5.68,0,.359-.639,1.067-1.672,1.583a.259.259,0,0,0,.232.464c.943-.472,1.959-1.314,1.959-2.047,0-.383-.265-3.14-.417-4.689A.26.26,0,0,0,292.169,167.025Z" transform="translate(-276.03 -165.535)" fill="#f5f5f5"/><path d="M336.2,194.492a.259.259,0,0,0,.435-.247,1.309,1.309,0,0,1-.037-.5.263.263,0,0,0,.27-.222.259.259,0,0,0-.22-.293.468.468,0,0,0-.427.144.594.594,0,0,0-.131.278l-.3-.3a.259.259,0,0,0-.367.367Z" transform="translate(-317.897 -190.662)" fill="#f5f5f5"/><path d="M341.209,213.312l-.972.7a.259.259,0,1,0,.3.421l.973-.7a.259.259,0,1,0-.3-.421Z" transform="translate(-322.324 -209.211)" fill="#f5f5f5"/><path d="M352.8,225.762a.259.259,0,0,0,.023.344.719.719,0,0,1,.053.373.259.259,0,0,0,.25.268h.009a.259.259,0,0,0,.259-.25c.019-.529-.154-.723-.23-.781A.259.259,0,0,0,352.8,225.762Z" transform="translate(-333.997 -220.686)" fill="#f5f5f5"/><path d="M326.075,172.528a.259.259,0,0,0,.259-.259c0-.383-.02-.81-.052-1.254a9.46,9.46,0,0,1,.608,1.129.259.259,0,0,0,.238.157.256.256,0,0,0,.1-.021.259.259,0,0,0,.136-.34,14.27,14.27,0,0,0-1.187-2.046c-.1-.952-.235-1.885-.338-2.554a.251.251,0,0,0,.162-.04.256.256,0,0,0,.115-.234.253.253,0,0,0,.029.075.943.943,0,0,1,.095.635.259.259,0,0,0,.2.306.273.273,0,0,0,.053.005.26.26,0,0,0,.254-.207,1.47,1.47,0,0,0-.165-1.018.26.26,0,0,0-.358-.08.257.257,0,0,0-.116.235.253.253,0,0,0-.029-.075l-.438-.681a.259.259,0,0,0-.474.185c0,.02.2,1.158.377,2.53-.2-.281-.4-.555-.59-.817-.031-.392-.063-.755-.09-1.055a.263.263,0,0,0,.042-.017.259.259,0,0,0,.116-.348l-.259-.519a.259.259,0,0,0-.49.142c.031.31.063.652.095,1.012-.164-.216-.316-.414-.446-.582a.26.26,0,0,0-.053-.429l-.519-.259a.259.259,0,0,0-.318.394c.014.017.653.818,1.416,1.851a20.849,20.849,0,0,1,.1,3.87c-.023.068-.063.149-.1.152-.157.022-.531-.329-.719-.7a.361.361,0,0,0-.347-.235c-.279.017-.387.324-.585.881a3.65,3.65,0,0,1-.515,1.1,2.944,2.944,0,0,1-.322-1.021.258.258,0,0,0,.5-.087c0-.387-.27-3.332-.422-4.946a.259.259,0,0,0,.149-.322l-.259-.778a.259.259,0,0,0-.5.107c.176,1.85.507,5.423.517,5.917l0-.013a.259.259,0,1,0-.513.073c.076.53.269,1.442.715,1.59a.433.433,0,0,0,.138.023.509.509,0,0,0,.365-.169,3.74,3.74,0,0,0,.642-1.3c.038-.107.083-.235.126-.343.238.347.653.78,1.074.746a.636.636,0,0,0,.555-.505,14.6,14.6,0,0,0-.01-3.238c.219.306.437.62.646.93.081.777.139,1.555.139,2.194A.259.259,0,0,0,326.075,172.528Z" transform="translate(-305.012 -165.542)" fill="#f5f5f5"/><path d="M383.327,171.563c-.184-1.369-.44-2.954-.6-3.927a.255.255,0,0,0,.217-.046.259.259,0,0,0,.049-.363l-.47-.616a.259.259,0,0,0-.462.2c0,.027.467,2.689.753,4.82a2.431,2.431,0,0,1-.427,1.946,1.147,1.147,0,0,1-.951.355.259.259,0,0,0-.033.518c.044,0,.087,0,.13,0a1.637,1.637,0,0,0,1.234-.523A2.9,2.9,0,0,0,383.327,171.563Z" transform="translate(-360.296 -165.941)" fill="#f5f5f5"/><path d="M371.084,256.215a.263.263,0,0,0,.013.364.109.109,0,0,1,.031.054.122.122,0,0,1-.039.058.259.259,0,1,0,.367.367.588.588,0,0,0,.191-.442.617.617,0,0,0-.2-.422A.257.257,0,0,0,371.084,256.215Z" transform="translate(-350.906 -248.883)" fill="#f5f5f5"/><path d="M160.036,327.139h-1.815v-.259a.259.259,0,1,0-.519,0v.259H143.957a3.62,3.62,0,0,0,2.334.778H157.7v.519a.259.259,0,0,0,.259.259h2.075a.778.778,0,1,0,0-1.556Zm0,1.037h-1.815v-.259H160.3l-.047-.14a.252.252,0,0,1,.047.14A.26.26,0,0,1,160.036,328.176Z" transform="translate(-140.772 -314.12)" fill="#f5f5f5"/></g></g></svg>